<svg xmlns="http://www.w3.org/2000/svg" viewBox="0 0 158.49 58.96"><defs><style>.cls-1{fill:#f59753;}.cls-2{fill:#f59655;}.cls-3{fill:#f49956;}.cls-4{fill:#f49856;}.cls-5{fill:#f49855;}.cls-6{fill:#eba068;}.cls-7{fill:#f69757;}.cls-8{fill:#f29a58;}.cls-9{fill:#f69554;}.cls-10{fill:#f39a5a;}.cls-11{fill:#f39858;}.cls-12{fill:#f39a5d;}.cls-13{fill:#fcfaf7;}</style></defs><g id="Layer_2" data-name="Layer 2"><g id="Layer_1-2" data-name="Layer 1"><path class="cls-1" d="M21.81,8.9c3.07,1.58,5.65,3.6,6.65,7.1,2.49,4.72,1.26,10.22-3.74,13-4.07,2.24-3.53,4.07-1.14,7.12C27.33,40.87,30,46.46,34.81,50.46c1.76,1.47,1.45,1.9-1.13,3.28-5.29.74-8.53-1.72-11.12-6.2s-6.13-8.69-9.06-13.13c-1.31-2-3-2.72-5.08-2.14S6.86,35,7,36.52C7.39,42,5.29,47.85,9.81,53.24H0A249.68,249.68,0,0,0,0,7.9C6.43,8.08,14.16,6.94,21.81,8.9Z"/><path class="cls-2" d="M62.71,58.85,52.6,59c-4.36-.77-8.07-3-11.82-5.17-9.22-5-14.65-18.69-12-29.81,1-4.05,2.24-7.88,5.11-11C40.24,4.83,48.08-.42,58.86,0A27.22,27.22,0,0,1,83.41,19.61c-2.82.06-4.53-1.12-6-3.42C70.35,5.18,59.55,1.9,47.71,7c-3.24,4-7.66,6.88-10.14,11.58C34.82,23.81,35,29.44,34.59,35,36.92,50.43,54,59.36,67.7,52.31c1.6-.82,3.3-1.61,4-3.49l-.07.07c1.87,0,2.58-1.91,4.14-2.43C77.11,51.08,77,51.31,73.4,54A27.33,27.33,0,0,1,62.71,58.85Z"/><path class="cls-3" d="M118.6,51.8c3.59-2.38,1.41-6.11,2.2-9.13.72-2.72-2.61-7.62,2.85-7.81,5.81-.21,2.95,4.92,3.06,7.56.36,8.3,3.57,10.8,11.82,8.1A16.34,16.34,0,0,0,150,37.81c.86-4.09,3.65-3.6,6-3,3.53,1,1.24,3.53.58,5.22-2.64,6.9-7.88,10.9-14.92,12.73-7.34,1.14-14.71.29-22.07.43C118.86,53.23,118.53,52.55,118.6,51.8Z"/><path class="cls-4" d="M141.9,8.78c8.5,1.38,14.72,7.51,15.84,16,.16,1.28,2.21,3.89-1.27,4.12-2.5.16-5.44.93-6-3.18a18.46,18.46,0,0,0-10-14.47c-.38-.7-1.27-1.37-.82-2.18S141.1,8.41,141.9,8.78Z"/><path class="cls-5" d="M130.63,9.92c-2.8.6-4.16,2-3.87,5.19.32,3.45,0,7,.09,10.45.05,2.1-.26,3.5-2.92,3.42-2.34-.08-3.28-.93-3.19-3.28.12-3.15,0-6.31,0-9.47,0-2.82.22-5.69-3.76-8.27h13.62A1.3,1.3,0,0,1,130.63,9.92Z"/><path class="cls-6" d="M130.63,9.92c0-.65,0-1.3,0-2,3.79-.14,7.62-.85,11.28.82-1.85,0-1.79,1.14-1.39,2.45A35.49,35.49,0,0,0,130.63,9.92Z"/><path class="cls-7" d="M71.7,48.82c-2-.8-3.94-1.67-6-2.38-2.89-1-4.57-2.42-2.69-5.74.94-1.66.42-2.86-1.79-2.76a17.2,17.2,0,0,1-3,0c-1.61-.21-3.68-.24-3.61-2.48.09-2.73,2.42-1.77,3.77-1.52,3.37.62,6-1.24,9-2.12,3-1.26,5.07.76,7.36,2,2.12,2.13.6,4.26-.08,6.34-1,2.93-2,5.82-3.08,8.73Z"/><path class="cls-8" d="M100.63,24.86a3.12,3.12,0,0,0,1.48,2.9c6,4.74,7.62,11.74,4.41,18S94.45,56,87.81,54.29c-2-.5-3.66-1.38-3.08-3.68.76-3,2.86-1.36,4.39-.82,8.82,3.15,15.32-.78,14.2-8.75-.59-4.17-2.6-7.51-6.75-9.16-1.34-.53-2.71-1-4.16-1.52l8.29-5.44Z"/><path class="cls-9" d="M48.74,21.78l2.95,8.09c.87,2.52-.4,2.69-2.34,2.13-1-.45-2.21-1.43-2.66.46-1.28,5.42-4.35,3.91-7.6,2.11a13.28,13.28,0,0,0-2.31-.75c-1.13-.55-2-1.39-1.68-2.71.9-4,2.12-8.06,4.81-11.27C42.48,16.78,45.41,17.55,48.74,21.78Z"/><path class="cls-10" d="M100.7,24.92c.54-4.31,2.65-9.08-2.4-12.09C93.05,9.7,88.89,12.43,85,16.3c1.51-6,5.24-9.26,10.62-9.46,5-.19,8.91,2.41,10.35,6.93,1.26,3.92-.72,8-5.33,11.09Z"/><path class="cls-11" d="M74.79,33.82c-2.62-.07-4.62-2.37-7.36-2,1.55-1.06,5.23-.36,2.93-4.45-1.23-2.18.28-4.6,2.89-5.38,2.27-.68,4.45-.15,5.27,2.35.93,2.84.34,5.8-2.83,6.31C72,31.21,74,32.46,74.79,33.82Z"/><path class="cls-12" d="M50.64,18.76c-3.5.7-6.54.21-6.8-4.07-.23-3.88,2.42-5,5.86-4.83C53.44,12.47,53,15.51,50.64,18.76Z"/><path class="cls-7" d="M49.35,32c1.32-.12,2.28-.63,2.34-2.13,1.06.88,2.73,1.46,2.16,3.27A2.55,2.55,0,0,1,52.2,34.7C50.4,34.88,49.89,33.34,49.35,32Z"/><path class="cls-13" d="M6.91,20.08a17.3,17.3,0,0,1,0-3c.4-2.38-1.44-5.7,2.29-6.76,3.95-1.12,7.8-.38,10.26,3C22.05,16.94,22.6,21,20,25s-6.68,5.1-11.22,4.9c-1.58-.07-1.83-1.12-1.83-2.37q0-3.72,0-7.43Z"/></g></g></svg>